<svg width="139" height="161" viewBox="0 0 139 161" fill="none" xmlns="http://www.w3.org/2000/svg">
<path d="M137.249 33.3757C136.731 32.9597 136.109 32.6924 135.451 32.6023C134.793 32.5123 134.123 32.6031 133.512 32.8648L74.0426 58.6164C71.4569 59.743 68.2188 60.2786 64.8944 60.2786C60.2587 60.297 55.463 59.2197 52.1202 57.7545C51.1015 57.3254 50.1315 56.7888 49.2267 56.1539C49.473 56.0307 49.7808 55.8953 50.1194 55.7599L104.208 32.3415L112.273 35.789V25.7112C112.285 24.9925 112.135 24.2804 111.833 23.628C111.531 22.9756 111.086 22.3998 110.531 21.9436C110.015 21.528 109.396 21.2608 108.739 21.1708C108.083 21.0808 107.415 21.1713 106.806 21.4326L47.3368 47.1842C45.5022 47.923 43.9262 48.8341 42.5965 50.1577C41.0566 51.6768 40.1821 53.7446 40.1647 55.9076C40.1647 55.9692 40.1832 56.0738 40.1832 56.0738V146.755L40.1709 146.879C40.1709 146.903 40.1894 146.915 40.1894 146.94V147.039H40.2017C40.3248 150.209 41.9254 152.228 43.4522 153.657C48.254 157.892 56.3187 160.262 64.9006 160.385C68.9637 160.385 73.0884 159.77 76.9052 158.132L136.393 132.374C137.963 131.697 138.991 130.017 138.991 128.114V37.1434C139 36.4251 138.849 35.7139 138.547 35.0619C138.246 34.4099 137.802 33.8337 137.249 33.3757ZM99.5294 16.1383C99.4248 14.7839 98.8646 13.4911 97.8673 12.7154C97.3493 12.2993 96.7279 12.032 96.0696 11.942C95.4114 11.852 94.7411 11.9427 94.1304 12.2044L34.661 37.9437C32.0754 39.0641 28.8311 39.6059 25.5129 39.6059C20.8772 39.6182 16.0815 38.5408 12.7386 37.0695C11.7189 36.6476 10.7486 36.115 9.8452 35.4812C10.0915 35.3581 10.3993 35.2226 10.7379 35.0872L64.8328 11.6688L72.8975 15.1163V5.05084C72.9085 4.33174 72.7569 3.61944 72.4542 2.96708C72.1515 2.31471 71.7054 1.73911 71.1491 1.28322C70.6321 0.867702 70.0118 0.600641 69.3546 0.510632C68.6974 0.420623 68.0282 0.511058 67.4184 0.772249L7.94908 26.53C6.11452 27.2687 4.54467 28.1737 3.20877 29.5035C1.67119 31.0236 0.798953 33.0913 0.783203 35.2534C0.783203 35.3273 0.801671 35.4258 0.801671 35.4258V126.397H0.813985C0.93711 129.567 2.53773 131.586 4.06448 133.015C8.86636 137.25 16.931 139.614 25.519 139.737C27.8512 139.724 30.176 139.472 32.4571 138.986V56.0677C32.3955 51.7583 34.1193 47.6213 37.1482 44.6417C39.2466 42.6062 41.7398 41.0222 44.4741 39.9876L99.5294 16.1383Z" fill="url(#paint0_linear_80_5)"/>
<defs>
<linearGradient id="paint0_linear_80_5" x1="69.8873" y1="0.476807" x2="69.8873" y2="160.385" gradientUnits="userSpaceOnUse">
<stop stop-color="#00ACFF"/>
<stop offset="1" stop-color="#5061FF"/>
</linearGradient>
</defs>
</svg>
