<svg width="197" height="197" viewBox="0 0 197 197" fill="none" xmlns="http://www.w3.org/2000/svg">
<path d="M185.796 157.477C187.36 156.259 188.607 154.68 189.431 152.877C190.255 151.073 190.63 149.097 190.526 147.117C190.423 145.137 189.842 143.211 188.834 141.503C187.826 139.796 186.42 138.357 184.737 137.309L184.688 65.6256L172.375 73.875V137.284C170.711 138.332 169.321 139.762 168.323 141.456C167.324 143.149 166.745 145.058 166.634 147.021C166.523 148.984 166.884 150.945 167.685 152.74C168.487 154.536 169.707 156.113 171.242 157.341L166.588 163.522C162.449 168.788 160.156 175.269 160.062 181.966V197.012H170.097C172.508 197.012 174.85 196.208 176.752 194.727C178.654 193.247 180.008 191.174 180.6 188.837L184.675 172.387V197.012H196.988V182.114C196.894 175.382 194.583 168.87 190.413 163.584L185.796 157.477ZM98.5 0L0 49.25L98.5 110.813L197 49.25L98.5 0Z" fill="url(#paint0_linear_80_10)"/>
<defs>
<linearGradient id="paint0_linear_80_10" x1="98.5" y1="0" x2="98.5" y2="197.012" gradientUnits="userSpaceOnUse">
<stop stop-color="#00ACFF"/>
<stop offset="1" stop-color="#5061FF"/>
</linearGradient>
</defs>
</svg>
